<!DOCTYPE svg PUBLIC "-//W3C//DTD SVG 20010904//EN" "http://www.w3.org/TR/2001/REC-SVG-20010904/DTD/svg10.dtd">
<svg version="1.0" xmlns="http://www.w3.org/2000/svg" width="198px" height="198px" viewBox="0 0 1980 1980" preserveAspectRatio="xMidYMid meet">
<g id="layer101" fill="#04324c" stroke="none">
 <path d="M0 990 l0 -990 990 0 990 0 0 990 0 990 -990 0 -990 0 0 -990z"/>
 </g>
<g id="layer102" fill="#7098f0" stroke="none">
 <path d="M0 990 l0 -990 990 0 990 0 0 990 0 990 -990 0 -990 0 0 -990z m1073 621 c25 -24 30 -38 30 -76 0 -39 -5 -52 -32 -78 -27 -28 -38 -32 -82 -32 -45 0 -54 4 -80 33 -51 57 -33 154 35 183 38 16 97 3 129 -30z m-38 -277 c23 -9 45 -57 45 -99 0 -67 35 -127 110 -188 78 -64 120 -116 159 -197 22 -48 26 -68 26 -155 0 -93 -2 -105 -33 -167 -39 -80 -101 -138 -181 -170 -80 -32 -241 -31 -323 1 -124 48 -218 173 -234 309 -8 74 6 115 45 132 59 24 121 -21 121 -89 0 -133 91 -221 229 -221 131 0 202 65 209 192 6 106 -12 144 -133 268 -119 122 -155 183 -163 278 -4 56 -2 65 18 87 23 25 68 33 105 19z"/>
 </g>

</svg>